<svg width="51" height="74" viewBox="0 0 51 74" fill="none" xmlns="http://www.w3.org/2000/svg">
<path d="M32.167 17.1967C38.6186 17.4555 45.3982 20.7 51 28.3636C50.6524 28.6272 50.1846 28.9311 49.6094 29.2494C48.6642 29.7723 47.4923 30.2982 46.2275 30.7142C43.652 31.5614 40.8914 31.8886 38.8672 31.0531C38.5138 30.9073 38.1071 30.9997 37.8516 31.2836C37.596 31.5676 37.5473 31.9816 37.7305 32.3168C38.9986 34.6372 42.7832 36.7606 49.748 36.0297C48.6215 38.5278 46.2694 40.6095 43.2646 42.4701C39.7567 44.6422 35.5867 46.3826 31.873 48.1332C30.0371 48.9986 28.3115 49.8685 26.8877 50.7845C25.477 51.6922 24.2741 52.7001 23.5752 53.8763C22.842 55.1104 22.6913 56.4873 23.3154 57.9623C23.9125 59.3733 25.1935 60.819 27.1729 62.3607C27.3884 62.5285 27.6685 62.5892 27.9346 62.5267C29.354 62.1931 31.8141 62.1055 34.0352 62.7455C36.0162 63.3164 37.6601 64.4128 38.3477 66.2914C37.8468 66.4883 37.2525 66.6322 36.5957 66.7279C35.6547 66.865 34.6425 66.8954 33.6992 66.8715C32.7585 66.8475 31.9038 66.7702 31.2842 66.6986C30.975 66.6629 30.7253 66.6279 30.5547 66.6029C30.4699 66.5905 30.4047 66.5805 30.3613 66.5736C30.3396 66.5702 30.3228 66.5675 30.3125 66.5658C30.3075 66.565 30.304 66.5642 30.3018 66.5638C30.3006 66.5637 30.2992 66.5639 30.2988 66.5638C30.0541 66.5221 29.803 66.5828 29.6045 66.7318C29.4059 66.881 29.2775 67.1054 29.25 67.3519V67.3529C29.2498 67.3545 29.2495 67.3578 29.249 67.3617C29.2481 67.3697 29.2463 67.3826 29.2441 67.3998C29.2399 67.4343 29.233 67.4868 29.2236 67.5551C29.2048 67.6917 29.175 67.8915 29.1328 68.1371C29.0483 68.6296 28.9144 69.3007 28.7168 70.0189C28.5183 70.7404 28.2611 71.4891 27.9365 72.1449C27.6906 72.6416 27.4226 73.051 27.1396 73.3539C27.1043 73.3375 27.0649 73.318 27.0225 73.2943C26.8124 73.1772 26.5615 72.9896 26.2842 72.726C25.7296 72.1986 25.1348 71.4306 24.6104 70.5199C23.5431 68.6665 22.8908 66.4474 23.2344 64.7074C23.304 64.3547 23.1571 63.9941 22.8604 63.7904C13.2486 57.1997 8.95438 49.7244 8.13574 42.7992C7.31557 35.8609 9.96441 29.3287 14.5205 24.5853C19.0801 19.8384 25.5067 16.9295 32.167 17.1967ZM19.4932 36.0541C19.2698 35.6825 18.7864 35.5617 18.4141 35.7845C15.9799 37.2423 14.5226 39.0875 13.8643 40.8754C13.2149 42.6389 13.3305 44.4111 14.1729 45.6039C14.6004 46.2094 15.2122 46.6521 15.9648 46.8246C16.7132 46.996 17.5345 46.8851 18.3682 46.5062C20.0124 45.7588 21.802 43.9334 23.5508 40.764C23.76 40.3844 23.6215 39.9077 23.2412 39.6986C22.8608 39.4895 22.3824 39.6275 22.1729 40.0072C20.4921 43.0533 18.9111 44.5343 17.7158 45.0775C17.1297 45.3439 16.6631 45.3747 16.3164 45.2953C15.9745 45.2169 15.6833 45.017 15.459 44.6996C14.9972 44.0456 14.8125 42.8486 15.3398 41.4164C15.8583 40.0085 17.0549 38.43 19.2236 37.1312C19.5958 36.9081 19.7166 36.4257 19.4932 36.0541ZM11.0938 25.8441C8.44853 29.3925 6.69737 33.626 6.2793 38.1781C4.62644 36.8745 1.72854 34.5676 0.204102 31.2201L0 30.7709L0.283203 30.3666C3.65418 25.5436 9.42581 25.869 11.0938 25.8441ZM35.1729 20.4584C32.7803 20.4584 30.841 22.3946 30.8408 24.7826C30.8408 27.1708 32.7802 29.1068 35.1729 29.1068C37.5653 29.1067 39.5049 27.1707 39.5049 24.7826C39.5047 22.3947 37.5652 20.4585 35.1729 20.4584ZM30.6533 0.0384521C30.7721 -0.0144708 30.9081 -0.0127094 31.0254 0.043335L47.5459 7.94861C47.8828 8.10987 47.8815 8.59027 47.5439 8.75037L46.0459 9.46033C46.0553 9.5393 46.0615 9.62007 46.0615 9.70251V13.4867C46.0615 13.5664 46.0557 13.6446 46.0469 13.7211C46.5871 14.0753 46.9443 14.6849 46.9443 15.3783C46.9442 16.4728 46.0554 17.3606 44.959 17.3607C43.8624 17.3607 42.9738 16.4729 42.9736 15.3783C42.9736 14.7432 43.273 14.1786 43.7383 13.8158C43.7209 13.7097 43.7119 13.5996 43.7119 13.4867V10.5677L41.3467 11.6898C41.1919 11.7633 41.0938 11.9198 41.0938 12.0912V17.5629C38.1844 16.2077 35.1944 15.5144 32.2393 15.3959C27.5229 15.2067 22.9434 16.4829 18.9756 18.8011C18.8803 18.7196 18.8184 18.6002 18.8184 18.4652V12.0824C18.8184 11.9155 18.7248 11.7627 18.5762 11.6869L12.8594 8.77283C12.5269 8.60338 12.5391 8.12416 12.8799 7.97205L30.6533 0.0384521ZM30.3867 7.00525C26.9974 7.00525 23.3505 7.8818 20.8613 9.77771C20.3324 10.1808 20.2311 10.9354 20.6348 11.4633C21.0389 11.9911 21.7959 12.0927 22.3252 11.6898C24.2577 10.2179 27.3245 9.41052 30.3867 9.41052C33.482 9.41053 36.1866 10.2314 37.543 11.5844C38.0139 12.054 38.7781 12.0541 39.249 11.5844C39.7197 11.1147 39.7196 10.3529 39.249 9.88318C37.2289 7.86829 33.7429 7.00526 30.3867 7.00525Z" fill="#2C86AA"/>
</svg>
