<svg width="98" height="39" viewBox="0 0 98 39" fill="none" xmlns="http://www.w3.org/2000/svg">
<path d="M59.4277 0.174072C61.9789 -0.178375 65.4759 -0.118217 69.2451 1.53149C70.9278 2.26811 72.6291 3.66287 74.0537 5.04517C76.8388 5.04303 79.5679 5.19433 82.1211 5.55981C86.4 6.17242 90.239 7.38954 93.0176 9.52368C95.8205 11.6767 97.5156 14.7428 97.5156 18.9485C97.5155 22.0502 95.8145 24.6201 93.1064 26.6633C90.4038 28.7023 86.6541 30.2553 82.4219 31.3459C80.1429 31.9332 77.7131 32.3877 75.2158 32.7131C73.6722 34.2602 71.2991 36.0779 67.7236 37.6877L66.9131 38.0403L66.8594 38.0627L66.8018 38.0725C63.9813 38.542 61.105 38.3198 58.9473 37.9856C57.8657 37.8181 56.9577 37.6201 56.3193 37.4651C56.0003 37.3876 55.7476 37.3208 55.5742 37.2727C55.4876 37.2487 55.4198 37.2295 55.374 37.2161C55.3516 37.2095 55.3343 37.2041 55.3223 37.2004C55.3162 37.1986 55.3109 37.1975 55.3076 37.1965C55.3061 37.1961 55.3046 37.1949 55.3037 37.1946H55.3027L55.4482 36.717L55.3018 37.1946L54.625 36.9866L55.0479 36.4182L55.0488 36.4172C55.0494 36.4164 55.0507 36.4147 55.0518 36.4133C55.0541 36.4102 55.0581 36.4045 55.0625 36.3987C55.0712 36.3871 55.0843 36.3703 55.1006 36.3489C55.1341 36.3049 55.1834 36.2403 55.2471 36.1584C55.3748 35.9942 55.5611 35.7577 55.7969 35.47C56.2683 34.8946 56.939 34.1087 57.7373 33.2668C57.8487 33.1494 57.9644 33.0321 58.0811 32.9124C57.0393 32.7957 56.0206 32.6557 55.0322 32.4895C44.6151 30.7379 33.057 27.4679 24.1133 24.6399C21.877 23.9328 19.8033 23.2522 17.9502 22.6301C16.7817 24.1 15.1678 25.7386 12.9385 27.4055L12.2236 27.926L12.1758 27.9592L12.1221 27.9817C9.47101 29.0527 6.61438 29.4602 4.43555 29.6028C3.34365 29.6742 2.41458 29.6789 1.75781 29.6663C1.42981 29.6599 1.16893 29.6492 0.989258 29.6399C0.899529 29.6352 0.828931 29.6313 0.78125 29.6282C0.757749 29.6266 0.739144 29.6252 0.726562 29.6243C0.720473 29.6238 0.715341 29.6235 0.711914 29.6233C0.71027 29.6232 0.707998 29.6224 0.707031 29.6223H0.706055L0.745117 29.1243L0.705078 29.6233L0 29.5667L0.289062 28.9192L0.290039 28.9182C0.290459 28.9173 0.291306 28.9158 0.291992 28.9143C0.293586 28.9108 0.295819 28.9043 0.298828 28.8977C0.3048 28.8846 0.313964 28.8655 0.325195 28.8411C0.348314 28.7908 0.382407 28.717 0.426758 28.6233C0.515766 28.4352 0.646765 28.1645 0.814453 27.8323C1.14965 27.1682 1.63399 26.2554 2.23047 25.26C3.41328 23.2863 5.07613 20.9217 6.92969 19.5657C7.12875 19.4201 7.32791 19.28 7.52734 19.1458C4.48503 16.7408 2.69357 14.4311 1.64746 12.6331C1.04854 11.6036 0.694833 10.7443 0.490234 10.136C0.388065 9.83216 0.323161 9.59067 0.283203 9.42212C0.26323 9.33785 0.249201 9.27155 0.240234 9.22485C0.235758 9.20153 0.232766 9.18266 0.230469 9.16919C0.229385 9.16283 0.228217 9.15765 0.227539 9.15356C0.227235 9.15166 0.226777 9.14909 0.226562 9.14771V9.14478L0.225586 9.1438L0.157227 8.68579L0.608398 8.58325L0.609375 8.58228H0.612305C0.613587 8.58205 0.615298 8.58172 0.617188 8.5813C0.621578 8.58032 0.628158 8.57804 0.635742 8.57642C0.650972 8.57318 0.672642 8.56919 0.700195 8.56372C0.756109 8.55261 0.837423 8.53715 0.941406 8.51978C1.14933 8.48504 1.45046 8.4412 1.83008 8.40454C2.58941 8.33124 3.6672 8.28484 4.9502 8.38989C7.51694 8.60011 10.9166 9.41893 14.2373 11.8479C15.5958 12.8417 16.8509 14.3774 17.8906 15.9036C20.2763 15.2406 23.0078 14.4909 25.9268 13.7102C35.4596 11.1604 47.0115 8.26075 55.0303 6.87817C56.1274 6.68902 57.2727 6.50488 58.4541 6.32935C57.9456 5.87962 57.5055 5.44422 57.126 5.03345C56.3176 4.1585 55.7859 3.39626 55.4541 2.84692C55.2884 2.57253 55.1723 2.3514 55.0967 2.19556C55.0589 2.1176 55.0306 2.0556 55.0117 2.01196C55.0024 1.99034 54.9954 1.97279 54.9902 1.96021C54.9877 1.95412 54.9849 1.94944 54.9834 1.94556C54.9827 1.94391 54.9829 1.94194 54.9824 1.94067L54.9814 1.93872V1.93774L54.9805 1.93677L54.8135 1.50415L55.2324 1.30591L55.2334 1.30493L55.2354 1.30396C55.2366 1.30343 55.2384 1.30284 55.2402 1.302C55.2443 1.30008 55.2499 1.2964 55.2568 1.29321C55.271 1.28675 55.2917 1.27915 55.3174 1.26782C55.3695 1.24483 55.4452 1.21069 55.543 1.17114C55.7384 1.09207 56.0231 0.984716 56.3857 0.866455C57.111 0.629952 58.1526 0.350253 59.4277 0.174072Z" fill="#006E99"/>
</svg>
