<svg width="73" height="29" viewBox="0 0 73 29" fill="none" xmlns="http://www.w3.org/2000/svg">
<path d="M44.3477 0.130493C46.2615 -0.133851 48.8849 -0.0886259 51.7129 1.14905C52.9682 1.69853 54.2305 2.72901 55.2871 3.74963C57.3452 3.74994 59.3623 3.86306 61.251 4.13342C64.4416 4.59023 67.3208 5.49949 69.4111 7.1051C71.5257 8.72947 72.8046 11.0462 72.8047 14.2125C72.8045 16.5712 71.5093 18.5156 69.4766 20.0494C67.449 21.5792 64.6438 22.7394 61.4893 23.5524C59.8032 23.9868 58.0066 24.323 56.1602 24.5651C54.9147 25.8053 52.9655 27.2677 49.9785 28.5221L49.9248 28.5446L49.8672 28.5543C47.7521 28.9064 45.5991 28.7393 43.9883 28.4899C43.1802 28.3647 42.5018 28.2171 42.0244 28.1012C41.7856 28.0432 41.596 27.9938 41.4658 27.9576C41.4008 27.9396 41.3501 27.9248 41.3154 27.9147C41.2983 27.9096 41.2846 27.9048 41.2754 27.902C41.2711 27.9007 41.2671 27.9008 41.2646 27.9C41.2636 27.8997 41.2624 27.8993 41.2617 27.899L41.2607 27.8981L40.583 27.6891L41.0059 27.1217L41.0068 27.1207V27.1198C41.0072 27.1192 41.0082 27.1186 41.0088 27.1178C41.0106 27.1154 41.0134 27.1114 41.0166 27.1071C41.0232 27.0983 41.0333 27.0855 41.0459 27.069C41.0711 27.0359 41.1085 26.9878 41.1562 26.9264C41.2517 26.8036 41.3905 26.6274 41.5664 26.4127C41.9183 25.9832 42.4194 25.3959 43.0156 24.7672C43.0404 24.7411 43.0657 24.7154 43.0908 24.6891C42.4043 24.6082 41.7318 24.514 41.0771 24.4039C33.3253 23.1005 24.7272 20.6678 18.0771 18.5651C16.4477 18.0498 14.934 17.5541 13.5771 17.0992C12.6138 18.2969 11.2588 19.6381 9.35156 20.9899L9.30371 21.024L9.25 21.0455C7.2618 21.8487 5.12364 22.1539 3.49707 22.2604C2.68095 22.3138 1.98632 22.3167 1.49512 22.3073C1.24989 22.3025 1.05472 22.2957 0.919922 22.2887C0.852643 22.2852 0.799685 22.2813 0.763672 22.2789C0.745856 22.2778 0.731329 22.2767 0.72168 22.276C0.717077 22.2757 0.712575 22.2762 0.709961 22.276C0.708909 22.2759 0.707701 22.2751 0.707031 22.275L0.706055 22.274L0 22.2184L0.289062 21.5719L0.290039 21.5709V21.5699L0.291016 21.568C0.292241 21.5653 0.293622 21.5603 0.295898 21.5553C0.300463 21.5453 0.308722 21.5312 0.317383 21.5123C0.334758 21.4746 0.360356 21.4194 0.393555 21.3492C0.460097 21.2087 0.556606 21.0062 0.681641 20.7584C0.931861 20.2627 1.29384 19.5808 1.73926 18.8375C2.61978 17.3683 3.86669 15.5921 5.2666 14.568C5.36816 14.4937 5.47055 14.4225 5.57227 14.3522C5.4974 14.2921 5.42339 14.2324 5.35059 14.1725L5.29688 14.153L5.31738 14.1461C3.27787 12.462 2.04457 10.8544 1.30469 9.58264C0.85501 8.80966 0.588278 8.1636 0.433594 7.70374C0.356371 7.47411 0.306947 7.2907 0.276367 7.16174C0.261118 7.09741 0.250168 7.04587 0.243164 7.0094C0.239791 6.99182 0.238159 6.97716 0.236328 6.96643C0.235456 6.96131 0.233998 6.95624 0.233398 6.95276C0.233113 6.95098 0.233601 6.94821 0.233398 6.9469L0.232422 6.94495L0.726562 6.86975L0.232422 6.94397L0.164062 6.48596L0.615234 6.38245H0.616211L0.623047 6.38147C0.626594 6.38072 0.63189 6.37978 0.637695 6.37854C0.649618 6.37598 0.666446 6.37198 0.6875 6.3678C0.73024 6.35931 0.7918 6.34768 0.870117 6.33459C1.02736 6.30833 1.25475 6.27523 1.54004 6.24768C2.11072 6.19261 2.91962 6.15815 3.88184 6.23694C5.80739 6.3947 8.35803 7.00912 10.8496 8.83167C11.8526 9.56541 12.7746 10.687 13.542 11.8033C15.2953 11.3163 17.2953 10.7661 19.4307 10.1949C26.5164 8.29971 35.1075 6.14266 41.0742 5.11389C41.8068 4.98759 42.5683 4.8633 43.3525 4.74475C43.056 4.47262 42.7926 4.2088 42.5596 3.95667C41.9527 3.29982 41.5517 2.72644 41.3008 2.31116C41.1755 2.10376 41.0871 1.93525 41.0293 1.81604C41.0004 1.75655 40.9786 1.70847 40.9639 1.67444C40.9567 1.65792 40.9514 1.64445 40.9473 1.6344C40.9452 1.62936 40.9427 1.62504 40.9414 1.6217C40.9407 1.62003 40.9409 1.61805 40.9404 1.61682L40.9395 1.61487L41.4062 1.4342L40.9385 1.61389L40.7725 1.18127L41.1914 0.982056H41.1924L41.1982 0.979126C41.2015 0.977644 41.2066 0.975705 41.2119 0.973267C41.223 0.968174 41.2382 0.96042 41.2578 0.951782C41.2977 0.934221 41.3551 0.910285 41.4287 0.880493C41.5765 0.820681 41.7917 0.738968 42.0645 0.650024C42.6095 0.4723 43.3913 0.26262 44.3477 0.130493Z" fill="#003457"/>
</svg>
