<svg width="174" height="140" viewBox="0 0 174 140" fill="none" xmlns="http://www.w3.org/2000/svg">
<path d="M97.6133 0.173828L97.4258 0.637695C97.5982 0.21174 97.6128 0.177396 97.6143 0.174805H97.6152C97.6162 0.175233 97.6179 0.176246 97.6191 0.176758C97.6218 0.177807 97.6257 0.178906 97.6299 0.180664C97.6392 0.184577 97.6531 0.191012 97.6699 0.198242C97.7039 0.212816 97.7532 0.234037 97.8164 0.262695C97.9439 0.320516 98.1297 0.408531 98.3682 0.529297C98.8454 0.771017 99.535 1.14643 100.396 1.68652C102.117 2.7671 104.524 4.50597 107.29 7.15039C112.65 12.2755 119.352 20.7938 125.033 34.4912L125.58 35.833L125.602 35.8877L125.61 35.9453C126.291 40.5118 126.41 45.1228 126.208 49.4678C127.571 51.1887 128.794 53.0877 129.829 55.1855C131.277 58.1207 132.352 61.4365 132.936 65.1846C133.147 65.204 133.361 65.2242 133.576 65.2471C142.421 63.7089 148.19 58.325 157.035 60.6318C165.88 62.939 175.88 73.7079 173.572 89.4756C171.649 94.8597 151.267 107.139 142.422 104.859C135.003 102.947 132.2 98.2828 126.909 93.1387C123.966 97.8378 120.243 101.812 115.638 104.965C112.211 107.311 108.305 109.195 103.885 110.59C100.994 115.481 97.0539 120.516 91.6797 125.143C86.1543 129.899 77.5552 133.4 70.3906 135.706C66.7988 136.862 63.5479 137.725 61.1963 138.298C60.0211 138.584 59.0696 138.799 58.4111 138.941C58.0821 139.013 57.8254 139.066 57.6514 139.102C57.5647 139.119 57.4981 139.134 57.4531 139.143C57.4308 139.147 57.4129 139.151 57.4014 139.153C57.3961 139.154 57.3916 139.155 57.3887 139.155C57.3873 139.156 57.3856 139.156 57.3848 139.156H57.3838L56.6875 139.292L56.793 138.591V138.59L56.7959 138.575C56.7974 138.565 56.7988 138.55 56.8018 138.531C56.8078 138.493 56.8178 138.435 56.8301 138.36C56.8546 138.211 56.8916 137.991 56.9424 137.706C57.0442 137.136 57.2008 136.306 57.4219 135.265C57.8641 133.182 58.5629 130.25 59.5918 126.849C60.9407 122.39 62.8591 117.114 65.5146 111.885C54.1803 109.659 46.0046 105.292 40.1553 100.011C38.6917 100.458 37.1799 100.864 35.6191 101.222C28.6539 102.816 19.9254 102.146 12.9795 101.093C9.49848 100.565 6.44884 99.9379 4.26953 99.4434C3.17982 99.1961 2.30702 98.9819 1.70605 98.8291C1.40557 98.7527 1.1725 98.6914 1.01465 98.6494C0.936452 98.6286 0.876548 98.6126 0.835938 98.6016C0.815622 98.596 0.79954 98.5908 0.789062 98.5879C0.783867 98.5865 0.779082 98.5867 0.776367 98.5859C0.775152 98.5855 0.774106 98.5842 0.773438 98.584L0.772461 98.585V98.584L0 98.3701L0.53125 97.7705L0.53418 97.7676L0.571289 97.7266C0.597013 97.6979 0.635435 97.6548 0.685547 97.5996C0.78598 97.4889 0.935027 97.3265 1.12988 97.1172C1.51999 96.6981 2.09527 96.0913 2.83594 95.3398C4.31745 93.8369 6.46343 91.7512 9.12598 89.4219C13.7973 85.3352 20.0715 80.4838 27.1416 76.6982C26.1119 71.5076 26.1646 67.0457 26.5508 64.4062C27.5416 57.6414 30.9337 52.05 35.7031 47.5127C30.8693 43.1169 27.2386 38.5149 24.584 34.46C22.3228 31.006 20.7683 27.9467 19.7773 25.749C19.2818 24.6501 18.9266 23.7655 18.6953 23.1543C18.5797 22.8488 18.4947 22.6112 18.4385 22.4492C18.4104 22.3684 18.3891 22.306 18.375 22.2637C18.3681 22.243 18.363 22.2269 18.3594 22.2158C18.3576 22.2104 18.3564 22.2052 18.3555 22.2021C18.355 22.2009 18.3539 22.2 18.3535 22.1992V22.1973C18.3557 22.1962 18.3879 22.1858 18.8301 22.0449L18.3525 22.1963L18.1973 21.7041L18.6934 21.5635H18.6963C18.6971 21.5633 18.6981 21.5628 18.6992 21.5625C18.7019 21.5618 18.7064 21.5608 18.7109 21.5596C18.7199 21.5571 18.7331 21.5539 18.749 21.5498C18.7814 21.5415 18.828 21.5288 18.8887 21.5146C19.0111 21.486 19.1917 21.4479 19.4277 21.4043C19.9002 21.3171 20.5982 21.2105 21.5156 21.1328C23.3514 20.9773 26.0645 20.9339 29.6025 21.3721C36.6804 22.2488 47.0511 25.0527 60.3057 32.7324L60.3506 32.7578L60.3877 32.793C60.868 33.2226 61.3406 33.6602 61.8076 34.1025C66.2464 32.9212 70.6649 32.1248 74.7715 31.6836C81.1377 30.9996 86.7904 31.1616 90.6172 32.0723C91.3146 32.2383 92.2049 32.4231 93.25 32.6416C92.0338 25.4721 92.3256 19.0047 93.1387 13.7803C93.7761 9.68455 94.7331 6.35065 95.5312 4.03809C95.9304 2.88174 96.2899 1.97958 96.5508 1.36523C96.6811 1.05838 96.7867 0.822661 96.8604 0.663086C96.8971 0.583438 96.9265 0.521837 96.9463 0.480469C96.9561 0.4601 96.9645 0.444399 96.9697 0.433594C96.9723 0.428383 96.9742 0.423813 96.9756 0.420898C96.9763 0.419525 96.9771 0.417796 96.9775 0.416992V0.416016C96.9806 0.41717 97.0157 0.434218 97.4258 0.637695L96.9785 0.415039L97.1836 0L97.6133 0.173828Z" fill="#2C86AA"/>
</svg>
