<svg width="725" height="1709" viewBox="0 0 725 1709" fill="none" xmlns="http://www.w3.org/2000/svg">
<mask id="mask0_684_2823" style="mask-type:alpha" maskUnits="userSpaceOnUse" x="0" y="0" width="725" height="1709">
<rect x="1.36676e-05" y="3.16908e-05" width="725" height="1709" fill="#D9D9D9"/>
</mask>
<g mask="url(#mask0_684_2823)">
<path d="M698.465 16.5346C698.126 -32.0951 714.149 -107 714.149 -107L-207.999 -107L-207.999 1979L716.964 1979C716.964 1943.99 705.689 1837.25 698.465 1746.42C691.24 1655.59 730.675 1531.02 727.42 1392.31C725.388 1305.72 710.935 1257.95 707.714 1171.4C702.185 1022.8 734.211 939.684 727.42 791.139C722.798 690.038 701.631 634.765 698.465 533.608C694.075 393.362 741.361 315.099 727.42 175.479C721.151 112.697 698.904 79.6277 698.465 16.5346Z" fill="#D8F7FD"/>
<path d="M562.465 -157.395C562.126 -234.347 578.149 -352.877 578.149 -352.877L-343.999 -352.877L-343.999 2948.02L580.964 2948.02C580.964 2892.63 569.689 2723.71 562.465 2579.98C555.24 2436.26 594.675 2239.14 591.42 2019.65C589.388 1882.62 574.935 1807.04 571.714 1670.07C566.185 1434.93 598.211 1303.4 591.42 1068.34C586.798 908.362 565.631 820.897 562.465 660.826C558.075 438.899 605.361 315.056 591.42 94.1202C585.151 -5.22656 562.904 -57.5564 562.465 -157.395Z" fill="#1FD6F9"/>
<path d="M455.636 5.45627C456 -79.7859 474.558 -212 474.558 -212L-355.999 -212L-355.999 1789L471.337 1789C471.337 1789 492.728 1657.97 487.038 1573.96C481.783 1496.35 456.117 1456.01 447.987 1378.65C430.75 1214.67 493.332 1123.01 487.038 958.237C483.115 855.514 459.855 799.598 455.636 696.887C449.22 540.689 491.489 454.08 487.039 297.814C483.769 183.031 455.145 120.285 455.636 5.45627Z" fill="#27AED3"/>
<path d="M316.282 154.368C302.502 9.60503 316.282 -218 316.282 -218L-393 -218L-386.969 1847.13L307.034 1858C307.034 1858 311.918 1672.49 316.282 1553.66C323.19 1365.56 351.403 1260.01 338.799 1072.2C332.209 974.011 313.278 920.429 307.034 822.214C294.51 625.238 356.118 514.418 338.799 317.807C333.145 253.625 322.388 218.508 316.282 154.368Z" fill="#2C86AA"/>
<path d="M305.965 -68.2757C323.73 -135.774 305.965 -247 305.965 -247L-465 -247L-465 1915L314.822 1915C314.822 1915 326.472 1819.9 314.822 1760.83C291.504 1642.6 177.135 1570.43 142.512 1504.82C98.5555 1421.52 165.321 1357.96 157.408 1264.11C147.683 1148.74 91.1581 1093.15 80.1106 977.905C67.9868 851.435 129.024 779.345 109.097 653.867C98.5578 587.499 53.1062 555.633 60.3835 488.829C66.6274 431.511 111.429 411.862 123.993 355.591C140.416 282.035 92.4985 236.696 109.097 163.18C135.23 47.4371 289.12 -4.2731 305.965 -68.2757Z" fill="#006E99"/>
<path d="M57.6888 -92.8411C89.9642 -168.891 178.091 -245 178.091 -245L-496 -245L-496 1913L191.379 1913C191.379 1913 215.276 1809.22 191.379 1750.38C158.36 1669.06 105.205 1649.74 62.9236 1580.5C4.94932 1485.57 -86.2478 1453.58 -93.7199 1342.61C-102.176 1217.01 9.60166 1024.07 -5.12961 816.087C-15.9341 663.543 -96.9644 595.936 -99.7601 436.092C-90.6639 320.325 -1.65958 223.688 23.8635 138.215C44.666 68.5505 23.8635 -13.1388 57.6888 -92.8411Z" fill="#003457"/>
</g>
</svg>
