<svg width="1920" height="1006" viewBox="0 0 1920 1006" fill="none" xmlns="http://www.w3.org/2000/svg">
<path d="M27.6081 71.0781C11.5259 15.7541 -45.6553 19.3227 -80.2023 37.7646C-110.188 53.7715 -133.214 35.4194 -167.165 33.6004C-189.203 9.20899 -207.072 5.63971 -238.642 29.4363C-273.188 52.0403 -274.38 104.39 -238.642 125.212C-261.871 137.108 -273.784 163.878 -248.768 206.711C-240.429 254.894 -211.243 264.412 -148.105 267.983C-110.901 277.401 -87.9456 281.069 -49.8248 267.983C-35.5295 290.587 -3.56357 312.798 24.6299 314.384C50.2424 323.305 84.7893 328.065 112.784 319.143C136.61 322.116 166.987 309.028 170.561 278.691C191.409 288.208 218.808 307.839 277.18 282.855C267.055 306.054 277.18 314.384 297.432 314.384C325.37 340.394 358.783 339.367 395.117 319.143C425.494 341.747 455.872 338.772 476.719 319.143C518.414 333.418 546.226 323.118 570.83 294.158C628.607 282.855 610.738 244.186 591.082 237.644C604.186 215.037 583.934 185.888 558.917 182.916C566.66 171.611 586.317 138.298 531.518 123.428C517.223 106.175 460.041 58.5841 430.855 120.453C430.855 84.7604 405.243 56.2062 369.504 56.2062C339.127 -9.23215 272.415 -27.6735 237.868 56.2062C223.573 45.498 180.687 37.7649 180.687 84.7604C164.009 63.9392 138.992 60.9648 123.506 90.7092C108.019 71.0781 92.5327 26.4618 27.6081 71.0781Z" fill="#F0FAFF"/>
<path d="M1893.39 71.0781C1909.47 15.7541 1966.66 19.3227 2001.2 37.7646C2031.19 53.7715 2054.21 35.4194 2088.17 33.6004C2110.2 9.20899 2128.07 5.63971 2159.64 29.4363C2194.19 52.0403 2195.38 104.39 2159.64 125.212C2182.87 137.108 2194.78 163.878 2169.77 206.711C2161.43 254.894 2132.24 264.412 2069.11 267.983C2031.9 277.401 2008.95 281.069 1970.82 267.983C1956.53 290.587 1924.56 312.798 1896.37 314.384C1870.76 323.305 1836.21 328.065 1808.22 319.143C1784.39 322.116 1754.01 309.028 1750.44 278.691C1729.59 288.208 1702.19 307.839 1643.82 282.855C1653.95 306.054 1643.82 314.384 1623.57 314.384C1595.63 340.394 1562.22 339.367 1525.88 319.143C1495.51 341.747 1465.13 338.772 1444.28 319.143C1402.59 333.418 1374.77 323.118 1350.17 294.158C1292.39 282.855 1310.26 244.186 1329.92 237.644C1316.81 215.037 1337.07 185.888 1362.08 182.916C1354.34 171.611 1334.68 138.298 1389.48 123.428C1403.78 106.175 1460.96 58.5841 1490.14 120.453C1490.14 84.7604 1515.76 56.2062 1551.5 56.2062C1581.87 -9.23215 1648.58 -27.6735 1683.13 56.2062C1697.43 45.498 1740.31 37.7649 1740.31 84.7604C1756.99 63.9392 1782.01 60.9648 1797.49 90.7092C1812.98 71.0781 1828.47 26.4618 1893.39 71.0781Z" fill="#F0FAFF"/>
<path d="M48.5343 222.536C-0.0953674 222.875 -75 206.852 -75 206.852V1129H2011V204.037C1975.99 204.037 1869.25 215.312 1778.42 222.536C1687.59 229.761 1563.02 190.326 1424.31 193.581C1337.72 195.613 1289.95 210.066 1203.4 213.287C1054.8 218.816 971.684 186.79 823.139 193.581C722.038 198.203 666.765 219.37 565.608 222.536C425.362 226.926 347.099 179.64 207.479 193.581C144.697 199.85 111.627 222.097 48.5343 222.536Z" fill="#1FD6F9"/>
<path d="M65.7991 329.365C-28.9854 329.001 -176 310.443 -176 310.443V1141H2049V313.664C2049 313.664 1903.3 292.273 1809.89 297.962C1723.59 303.218 1678.73 328.884 1592.72 337.014C1410.37 354.251 1308.45 291.669 1125.24 297.962C1011.02 301.886 948.84 325.146 834.631 329.365C660.948 335.781 564.644 293.512 390.885 297.962C263.252 301.232 193.482 329.855 65.7991 329.365Z" fill="#27AED3"/>
<path d="M302.368 468.718C157.605 482.498 -70 468.718 -70 468.718V1178L1995.13 1171.97L2006 477.966C2006 477.966 1820.49 473.082 1701.66 468.718C1513.56 461.81 1408.01 433.597 1220.2 446.201C1122.01 452.791 1068.43 471.721 970.214 477.966C773.238 490.49 662.418 428.882 465.807 446.201C401.625 451.855 366.508 462.612 302.368 468.718Z" fill="#2C86AA"/>
<path d="M79.7243 479.035C12.2261 461.27 -99 479.035 -99 479.035V1250H2063V470.178C2063 470.178 1967.9 458.528 1908.83 470.178C1790.6 493.496 1718.43 607.865 1652.82 642.488C1569.52 686.444 1505.96 619.679 1412.11 627.592C1296.74 637.317 1241.15 693.842 1125.91 704.889C999.435 717.013 927.345 655.976 801.867 675.903C735.499 686.442 703.633 731.894 636.829 724.616C579.511 718.373 559.862 673.571 503.591 661.007C430.035 644.584 384.696 692.502 311.18 675.903C195.437 649.77 143.727 495.88 79.7243 479.035Z" fill="#006E99"/>
<path d="M55.1589 727.311C-20.8913 695.036 -97 606.909 -97 606.909V1281H2061V593.621C2061 593.621 1957.22 569.724 1898.38 593.621C1817.06 626.64 1797.74 679.795 1728.5 722.076C1633.57 780.051 1601.58 871.248 1490.61 878.72C1365.01 887.176 1172.07 775.398 964.087 790.13C811.543 800.934 743.936 881.964 584.092 884.76C468.325 875.664 371.688 786.66 286.215 761.137C216.55 740.334 134.861 761.137 55.1589 727.311Z" fill="#003457"/>
</svg>
