<svg width="36" height="36" viewBox="0 0 36 36" fill="none" xmlns="http://www.w3.org/2000/svg">
<path d="M20.9131 1.96191C22.8188 1.37721 24.8513 1.34786 26.7734 1.87598C28.7372 2.41399 28.9123 4.70895 27.7686 5.85645L27.7666 5.8584L23.1182 10.5039L25.4961 12.8818L30.1396 8.23926C31.2872 7.08453 33.5858 7.26599 34.124 9.22559C34.6527 11.1483 34.623 13.1825 34.0381 15.0889C33.4532 16.995 32.3372 18.695 30.8213 19.9902C29.3053 21.2856 27.4517 22.123 25.4775 22.4033C23.854 22.6338 22.2044 22.479 20.6592 21.96L9.49023 33.1299C8.61227 34.0076 7.42111 34.5012 6.17969 34.501C4.93838 34.5007 3.74771 34.0068 2.87012 33.1289C1.99268 32.251 1.49983 31.0606 1.5 29.8193C1.50021 28.5781 1.99332 27.3874 2.87109 26.5098L14.041 15.3389C13.5224 13.7942 13.3682 12.1453 13.5986 10.5225C13.879 8.54837 14.7155 6.69464 16.0107 5.17871C17.3061 3.66272 19.0068 2.54681 20.9131 1.96191Z" stroke="#737373" stroke-width="3" stroke-linecap="round" stroke-linejoin="round"/>
</svg>
