<svg width="44" height="44" viewBox="0 0 44 44" fill="none" xmlns="http://www.w3.org/2000/svg">
<path d="M22 2C24.6265 2 27.2278 2.51736 29.6543 3.52246C32.0806 4.52754 34.2855 6.0004 36.1426 7.85742C37.9998 9.7146 39.4724 11.9202 40.4775 14.3467C41.4826 16.7731 42 19.3736 42 22C42 24.6265 41.4826 27.2278 40.4775 29.6543C39.4724 32.0806 37.9996 34.2855 36.1426 36.1426C32.3918 39.8933 27.3044 42 22 42C16.6957 42 11.6081 39.8933 7.85742 36.1426C4.10674 32.3918 2 27.3043 2 22C2.00003 16.6957 4.1067 11.6081 7.85742 7.85742C9.7146 6.00024 11.9202 4.52756 14.3467 3.52246C16.7731 2.51744 19.3737 2.00001 22 2Z" stroke="#F0FAFF" stroke-width="4"/>
<path d="M22.104 27.658L24.932 30.486L33.42 22L24.934 13.514L22.106 16.344L25.76 20H10.686V24H25.76L22.104 27.658Z" fill="#F0FAFF"/>
</svg>
