<svg width="36" height="36" viewBox="0 0 36 36" fill="none" xmlns="http://www.w3.org/2000/svg">
<path d="M17.9976 1.5C19.0187 1.50003 20.0008 1.85903 20.7896 2.50488L33.3657 12.8008L33.563 12.9766C34.501 13.8821 34.6735 15.1634 34.3384 16.1885C33.9803 17.2837 32.9678 18.2859 31.4976 18.2881V29.4209C31.4975 30.632 31.0403 31.8079 30.2056 32.6865C29.3684 33.5677 28.2164 34.078 26.9976 34.0781H19.4976V23.1045C19.4974 22.6409 19.3211 22.2109 19.0308 21.9053C18.7429 21.6023 18.3697 21.4473 17.9976 21.4473C17.6253 21.4473 17.2513 21.6022 16.9634 21.9053C16.6732 22.2109 16.4977 22.641 16.4976 23.1045V34.0781H8.99756C7.77857 34.0781 6.62584 33.5679 5.78857 32.6865C4.95397 31.8079 4.49763 30.6319 4.49756 29.4209V18.2881C3.02644 18.286 2.01344 17.2838 1.65576 16.1875C1.29913 15.0941 1.52035 13.7104 2.62744 12.8008L2.62939 12.7988L15.2056 2.50488C15.9943 1.85909 16.9765 1.5 17.9976 1.5Z" stroke="#737373" stroke-width="3"/>
</svg>
