<svg width="19" height="19" viewBox="0 0 19 19" fill="none" xmlns="http://www.w3.org/2000/svg">
<path d="M10.1587 17.2591C12.6334 16.7635 15.8333 14.9831 15.8333 10.3795C15.8333 6.19083 12.7672 3.401 10.5624 2.11929C10.0724 1.83429 9.5 2.20875 9.5 2.77479V4.22195C9.5 5.36354 9.02025 7.4472 7.68708 8.31408C7.00625 8.75662 6.27 8.094 6.18767 7.2865L6.11958 6.62308C6.04042 5.852 5.25508 5.38412 4.63917 5.85437C3.53163 6.6975 2.375 8.17791 2.375 10.3787C2.375 16.0083 6.56212 17.4167 8.65529 17.4167C8.77774 17.4167 8.90546 17.4127 9.03846 17.4048C8.00454 17.3169 6.33333 16.6757 6.33333 14.6015C6.33333 12.9786 7.51687 11.8821 8.41621 11.3477C8.65846 11.2052 8.94108 11.3913 8.94108 11.6723V12.1394C8.94108 12.4957 9.07962 13.0538 9.40817 13.4354C9.78025 13.8676 10.3257 13.4148 10.3692 12.8464C10.3835 12.6675 10.564 12.5535 10.7192 12.6437C11.2266 12.9406 11.875 13.5739 11.875 14.6015C11.875 16.2228 10.9812 16.9686 10.1587 17.2591Z" fill="#EAA937"/>
</svg>
