<svg width="30" height="35" viewBox="0 0 30 35" fill="none" xmlns="http://www.w3.org/2000/svg">
<path d="M18.4615 0H4.61538C3.39131 0 2.21737 0.486262 1.35181 1.35181C0.486262 2.21737 0 3.39131 0 4.61538V27.6923C0 28.9164 0.486262 30.0903 1.35181 30.9559C2.21737 31.8214 3.39131 32.3077 4.61538 32.3077H9.82385C9.23604 31.5959 8.72765 30.8221 8.30769 30H4.61538C4.00335 30 3.41638 29.7569 2.9836 29.3241C2.55082 28.8913 2.30769 28.3043 2.30769 27.6923V27.6854H7.39846C7.18597 26.9309 7.04382 26.1584 6.97385 25.3777H2.30769V4.61538C2.30769 4.00335 2.55082 3.41638 2.9836 2.9836C3.41638 2.55082 4.00335 2.30769 4.61538 2.30769H18.4615C19.0736 2.30769 19.6605 2.55082 20.0933 2.9836C20.5261 3.41638 20.7692 4.00335 20.7692 4.61538V11.5892C21.5631 11.6631 22.3323 11.8054 23.0769 12.0162V4.61538C23.0769 3.39131 22.5907 2.21737 21.7251 1.35181C20.8596 0.486262 19.6856 0 18.4615 0ZM6.92308 4.61538C6.31104 4.61538 5.72407 4.85852 5.29129 5.29129C4.85852 5.72407 4.61538 6.31104 4.61538 6.92308V9.23077C4.61538 9.84281 4.85852 10.4298 5.29129 10.8626C5.72407 11.2953 6.31104 11.5385 6.92308 11.5385H16.1538C16.7659 11.5385 17.3529 11.2953 17.7856 10.8626C18.2184 10.4298 18.4615 9.84281 18.4615 9.23077V6.92308C18.4615 6.31104 18.2184 5.72407 17.7856 5.29129C17.3529 4.85852 16.7659 4.61538 16.1538 4.61538H6.92308ZM6.92308 6.92308H16.1538V9.23077H6.92308V6.92308ZM30 24.2308C30 26.9849 28.9059 29.6263 26.9584 31.5738C25.0109 33.5213 22.3696 34.6154 19.6154 34.6154C16.8612 34.6154 14.2198 33.5213 12.2724 31.5738C10.3249 29.6263 9.23077 26.9849 9.23077 24.2308C9.23077 21.4766 10.3249 18.8352 12.2724 16.8877C14.2198 14.9402 16.8612 13.8462 19.6154 13.8462C22.3696 13.8462 25.0109 14.9402 26.9584 16.8877C28.9059 18.8352 30 21.4766 30 24.2308ZM16.1538 27.6808C16.1538 27.8849 16.2079 28.0854 16.3107 28.2618C16.4135 28.4382 16.5612 28.5842 16.7388 28.6849C16.9164 28.7855 17.1175 28.8372 17.3217 28.8348C17.5258 28.8323 17.7256 28.7757 17.9008 28.6708L23.67 25.2162C23.8411 25.1137 23.9828 24.9687 24.0811 24.7951C24.1795 24.6216 24.2312 24.4256 24.2312 24.2262C24.2312 24.0267 24.1795 23.8307 24.0811 23.6572C23.9828 23.4837 23.8411 23.3386 23.67 23.2362L17.9008 19.7815C17.7258 19.6767 17.5262 19.6201 17.3223 19.6175C17.1183 19.615 16.9173 19.6665 16.7398 19.7669C16.5623 19.8673 16.4145 20.0129 16.3116 20.189C16.2086 20.3651 16.1542 20.5653 16.1538 20.7692V27.6808Z" fill="#737373"/>
</svg>
