<svg width="40" height="40" viewBox="0 0 40 40" fill="none" xmlns="http://www.w3.org/2000/svg">
<path d="M17.5 26.6667C17.5 25.2861 18.6193 24.1667 20 24.1667C21.3807 24.1667 22.5 25.2861 22.5 26.6667V29.1667C22.5 30.5474 21.3807 31.6667 20 31.6667C18.6193 31.6667 17.5 30.5474 17.5 29.1667V26.6667Z" fill="#404040"/>
<path fill-rule="evenodd" clip-rule="evenodd" d="M11.2501 12.0833C11.2501 7.25075 15.1676 3.33325 20.0001 3.33325C24.8326 3.33325 28.7501 7.25077 28.7501 12.0833V15.2083H30.8334C32.9044 15.2083 34.5834 16.8873 34.5834 18.9583V28.7491C34.5834 33.1214 31.0391 36.6658 26.6667 36.6658H13.3334C8.96116 36.6658 5.41675 33.1214 5.41675 28.7491V18.9583C5.41675 16.8873 7.09568 15.2083 9.16675 15.2083H11.2501V12.0833ZM13.7501 15.2083H26.2501V12.0833C26.2501 8.63147 23.4519 5.83325 20.0001 5.83325C16.5483 5.83325 13.7501 8.63147 13.7501 12.0833V15.2083ZM9.16675 17.7083C8.4764 17.7083 7.91675 18.2679 7.91675 18.9583V28.7491C7.91675 31.7406 10.3419 34.1658 13.3334 34.1658H26.6667C29.6582 34.1658 32.0834 31.7406 32.0834 28.7491V18.9583C32.0834 18.2679 31.5237 17.7083 30.8334 17.7083H9.16675Z" fill="#404040"/>
</svg>
