<svg width="38" height="38" viewBox="0 0 38 38" fill="none" xmlns="http://www.w3.org/2000/svg">
<path d="M16.0469 20.2265V19.9851C16.0516 19.1565 16.125 18.496 16.267 18.0035C16.4138 17.5111 16.6269 17.1134 16.9063 16.8103C17.1856 16.5073 17.5218 16.2327 17.9148 15.9865C18.2083 15.7971 18.4711 15.6006 18.7031 15.397C18.9351 15.1934 19.1198 14.9685 19.2571 14.7223C19.3944 14.4713 19.4631 14.192 19.4631 13.8842C19.4631 13.5575 19.3849 13.271 19.2287 13.0248C19.0724 12.7786 18.8617 12.5892 18.5966 12.4567C18.3362 12.3241 18.0473 12.2578 17.7301 12.2578C17.4223 12.2578 17.1312 12.3264 16.8565 12.4638C16.5819 12.5963 16.357 12.7952 16.1818 13.0603C16.0066 13.3208 15.9119 13.6451 15.8977 14.0334H13C13.0237 13.0864 13.2509 12.3051 13.6818 11.6896C14.1127 11.0693 14.6832 10.6077 15.3935 10.3047C16.1037 9.9969 16.8873 9.84302 17.7443 9.84302C18.6866 9.84302 19.5199 9.99927 20.2443 10.3118C20.9688 10.6195 21.5369 11.067 21.9489 11.6541C22.3608 12.2412 22.5668 12.9491 22.5668 13.7777C22.5668 14.3317 22.4744 14.8241 22.2898 15.2549C22.1098 15.6811 21.8565 16.0599 21.5298 16.3913C21.2031 16.718 20.8172 17.0139 20.3722 17.2791C19.9981 17.5016 19.6903 17.7336 19.4489 17.9751C19.2121 18.2166 19.0346 18.496 18.9162 18.8132C18.8026 19.1304 18.7434 19.521 18.7386 19.9851V20.2265H16.0469ZM17.4531 24.772C16.9796 24.772 16.5748 24.6063 16.2386 24.2748C15.9072 23.9387 15.7438 23.5362 15.7486 23.0675C15.7438 22.6034 15.9072 22.2057 16.2386 21.8743C16.5748 21.5428 16.9796 21.3771 17.4531 21.3771C17.9029 21.3771 18.2983 21.5428 18.6392 21.8743C18.9801 22.2057 19.1529 22.6034 19.1577 23.0675C19.1529 23.38 19.0701 23.6664 18.9091 23.9268C18.7528 24.1825 18.5469 24.3885 18.2912 24.5447C18.0355 24.6962 17.7562 24.772 17.4531 24.772Z" fill="#737373"/>
<path d="M17.8848 2.00488C21.8562 2.10339 25.644 3.72404 28.46 6.54004C31.3668 9.44685 33 13.3891 33 17.5C33 20.9385 31.857 24.2588 29.7822 26.9541L35.4141 32.5859L32.5859 35.4141L26.9541 29.7822C24.2588 31.857 20.9385 33 17.5 33C13.3891 33 9.44685 31.3668 6.54004 28.46C3.63323 25.5531 2 21.6109 2 17.5C2 13.3891 3.63323 9.44685 6.54004 6.54004C9.44685 3.63323 13.3891 2 17.5 2L17.8848 2.00488Z" stroke="#737373" stroke-width="4" stroke-linecap="round"/>
</svg>
