<svg width="34" height="24" viewBox="0 0 34 24" fill="none" xmlns="http://www.w3.org/2000/svg">
<path d="M25.3793 10.1209L16.4847 19.0155C14.8934 20.6067 12.7353 21.5007 10.4849 21.5007C8.23458 21.5007 6.07641 20.6067 4.48518 19.0155C2.89394 17.4243 2 15.2661 2 13.0158C2 10.7654 2.89394 8.60724 4.48517 7.01601L9.19047 2.31071C9.33878 2.16236 9.52776 2.06133 9.7335 2.02039C9.93923 1.97945 10.1525 2.00045 10.3463 2.08074C10.5401 2.16102 10.7057 2.29697 10.8222 2.47141C10.9388 2.64584 11.0009 2.85091 11.0009 3.06068V7.99997M29.6211 5.87906L32 3.50016" stroke="#737373" stroke-width="4" stroke-linecap="round" stroke-linejoin="round"/>
<path d="M27.4999 10.9999C29.1567 10.9999 30.4997 9.65678 30.4997 7.99999C30.4997 6.34321 29.1567 5.00012 27.4999 5.00012C25.8431 5.00012 24.5 6.34321 24.5 7.99999C24.5 9.65678 25.8431 10.9999 27.4999 10.9999Z" stroke="#737373" stroke-width="4" stroke-linecap="round" stroke-linejoin="round"/>
</svg>
